<?xml version="1.0" encoding="utf-8"?>
<svg version="1.1" id="Layer_1" xmlns="http://www.w3.org/2000/svg" xmlns:xlink="http://www.w3.org/1999/xlink" x="0px" y="0px"
	 viewBox="0 0 550 550" style="enable-background:new 0 0 550 550;" xml:space="preserve">
<style type="text/css">
	.st0{clip-path:url(#SVGID_1_);}
	.st1{fill:url(#SVGID_2_);}
	.st2{fill:#213B88;}
	.st3{clip-path:url(#SVGID_3_);}
	.st4{fill:url(#SVGID_4_);}
	.st5{clip-path:url(#SVGID_5_);}
	.st6{fill:url(#SVGID_6_);}
	.st7{clip-path:url(#SVGID_7_);}
	.st8{fill:url(#SVGID_8_);}
	.st9{clip-path:url(#SVGID_9_);}
	.st10{fill:url(#SVGID_10_);}
	.st11{clip-path:url(#SVGID_11_);fill:#213B88;}
</style>
<g>
	<g>
		<defs>
			<polygon id="SVGID_18_" points="378,71.7 310,265.7 235.6,478.3 333.1,478.3 475.5,71.7 			"/>
		</defs>
		<clipPath id="SVGID_1_">
			<use xlink:href="#SVGID_18_"  style="overflow:visible;"/>
		</clipPath>
		<g class="st0">
			
				<linearGradient id="SVGID_2_" gradientUnits="userSpaceOnUse" x1="654.0544" y1="480.5522" x2="664.3098" y2="480.5522" gradientTransform="matrix(0 5.61 5.61 0 -2340.3611 -3503.8306)">
				<stop  offset="0" style="stop-color:#213B88"/>
				<stop  offset="1" style="stop-color:#1B3168"/>
			</linearGradient>
			<path class="st1" d="M235.6,71.7h240v406.6h-240V71.7z"/>
		</g>
	</g>
	<g>
		<path class="st2" d="M394.9,209.6H20.7v92.3h374.2c23.3,0,42.1,18.9,42.1,42.1S418.2,386,394.9,386H20.7v92.3h374.2
			c74.2,0,134.4-60.2,134.4-134.4S469.1,209.6,394.9,209.6"/>
	</g>
	<g>
		<defs>
			<rect id="SVGID_21_" x="86.3" y="386" width="151.3" height="92.3"/>
		</defs>
		<clipPath id="SVGID_3_">
			<use xlink:href="#SVGID_21_"  style="overflow:visible;"/>
		</clipPath>
		<g class="st3">
			
				<linearGradient id="SVGID_4_" gradientUnits="userSpaceOnUse" x1="609.395" y1="597.8974" x2="619.6504" y2="597.8974" gradientTransform="matrix(5.4819 -2.0137 -2.0137 -5.4819 -2002.6493 4947.1685)">
				<stop  offset="0" style="stop-color:#1B3168;stop-opacity:0"/>
				<stop  offset="1" style="stop-color:#1B3168"/>
			</linearGradient>
			<path class="st4" d="M56.4,397l163.2-60l47.9,130.3l-163.2,60L56.4,397z"/>
		</g>
	</g>
	<g>
		<defs>
			<rect id="SVGID_24_" x="25" y="209.6" width="151.3" height="92.3"/>
		</defs>
		<clipPath id="SVGID_5_">
			<use xlink:href="#SVGID_24_"  style="overflow:visible;"/>
		</clipPath>
		<g class="st5">
			
				<linearGradient id="SVGID_6_" gradientUnits="userSpaceOnUse" x1="609.9001" y1="626.7669" x2="620.1555" y2="626.7669" gradientTransform="matrix(5.4819 -2.0137 -2.0137 -5.4819 -2008.6255 4929.9458)">
				<stop  offset="0" style="stop-color:#1B3168;stop-opacity:0"/>
				<stop  offset="1" style="stop-color:#1B3168"/>
			</linearGradient>
			<path class="st6" d="M-4.9,220.5l163.2-60l47.9,130.3L43,350.8L-4.9,220.5z"/>
		</g>
	</g>
	<g>
		<defs>
			<rect id="SVGID_27_" x="168.4" y="209.6" width="151.3" height="92.3"/>
		</defs>
		<clipPath id="SVGID_7_">
			<use xlink:href="#SVGID_27_"  style="overflow:visible;"/>
		</clipPath>
		<g class="st7">
			
				<linearGradient id="SVGID_8_" gradientUnits="userSpaceOnUse" x1="788.5511" y1="473.8797" x2="798.8065" y2="473.8797" gradientTransform="matrix(-4.4024 1.6171 1.6171 4.4024 2972.6213 -3114.2971)">
				<stop  offset="0" style="stop-color:#1B3168;stop-opacity:0"/>
				<stop  offset="1" style="stop-color:#1B3168"/>
			</linearGradient>
			<path class="st8" d="M138.5,220.5l163.2-60l47.9,130.3l-163.2,60L138.5,220.5z"/>
		</g>
	</g>
	<g>
		<defs>
			<rect id="SVGID_30_" x="229.7" y="386" width="151.3" height="92.3"/>
		</defs>
		<clipPath id="SVGID_9_">
			<use xlink:href="#SVGID_30_"  style="overflow:visible;"/>
		</clipPath>
		<g class="st9">
			
				<linearGradient id="SVGID_10_" gradientUnits="userSpaceOnUse" x1="789.1751" y1="509.8242" x2="799.4305" y2="509.8242" gradientTransform="matrix(-4.4024 1.6171 1.6171 4.4024 2978.5667 -3097.0557)">
				<stop  offset="0" style="stop-color:#1B3168;stop-opacity:0"/>
				<stop  offset="1" style="stop-color:#1B3168"/>
			</linearGradient>
			<path class="st10" d="M199.9,397l163.2-60l47.9,130.3l-163.2,60L199.9,397z"/>
		</g>
	</g>
	<path class="st2" d="M60.3,71.7l68,194l74.5,212.6h97.5l-74.5-212.6l-35.7-101.8L60.3,71.7z"/>
	<g>
		<defs>
			<polygon id="SVGID_33_" points="60.3,71.7 128.2,265.7 202.7,478.3 300.2,478.3 225.7,265.7 190.1,163.9 			"/>
		</defs>
		<clipPath id="SVGID_11_">
			<use xlink:href="#SVGID_33_"  style="overflow:visible;"/>
		</clipPath>
		<path class="st11" d="M60.3,71.7h239.9v406.6H60.3V71.7z"/>
	</g>
	<path class="st2" d="M190.1,164.4H20.7V72.1h137L190.1,164.4z"/>
</g>
</svg>
